<svg xmlns="http://www.w3.org/2000/svg" width="60" height="40" viewBox="0 0 60 40">
  <!-- Cuerpo de la Vaca -->
  <path fill="#FFF" stroke="#000" stroke-width="1" d="M10,15 C10,5 50,5 50,15 C60,15 60,30 50,30 L15,30 C5,30 5,15 10,15 Z"/>
  
  <!-- Cabeza -->
  <path fill="#FFF" stroke="#000" stroke-width="1" d="M5,10 C-5,15 5,30 12,25 L12,15 C5,5 -5,5 5,10 Z"/>
  
  <!-- Ojo -->
  <circle fill="#000" cx="5" cy="15" r="1.5"/>
  
  <!-- Manchas -->
  <path fill="#000" d="M20,18 C15,22 25,28 30,25 C35,22 25,14 20,18 Z"/>
  <path fill="#000" d="M40,12 C35,10 38,20 45,20 C50,20 45,14 40,12 Z"/>
  
  <!-- Cuernos -->
  <path fill="#DDD" stroke="#000" stroke-width="0.5" d="M8,8 C10,4 14,6 12,9 Z"/>
  <path fill="#DDD" stroke="#000" stroke-width="0.5" d="M2,8 C0,4 4,6 6,9 Z"/>
  
  <!-- Patas -->
  <rect fill="#FFF" stroke="#000" stroke-width="1" x="18" y="29" width="6" height="10"/>
  <rect fill="#FFF" stroke="#000" stroke-width="1" x="34" y="29" width="6" height="10"/>
  
  <!-- Ubre -->
  <path fill="#FBC4C4" stroke="#000" stroke-width="0.5" d="M25,28 C25,32 33,32 33,28 Z"/>
</svg>
