<svg xmlns="http://www.w3.org/2000/svg" width="60" height="40" viewBox="0 0 60 40"><path fill="#fff" stroke="#000" d="M10 15c0-10 40-10 40 0 10 0 10 15 0 15H15c-10 0-5-15 0-15z"/><path fill="#fff" stroke="#000" d="M5 10C-5 15 5 30 12 25V15C5 5-5 5 5 10z"/><circle r="1.5" cy="15" cx="5" fill="#000"/><path fill="#000" d="M20 18c-5 4 5 10 10 7 5-3-5-11-10-7zM40 12c-5-2-2 8 5 8 5 0 0-6-5-8z"/><path stroke="#000" stroke-width=".5" fill="#DDD" d="M8 8c2-4 6-2 4 1zM2 8C0 4 4 6 6 9z"/><path fill="#FBC4C4" stroke="#000" stroke-width=".5" d="M25 28c0 4 8 4 8 0z"/><g fill="#fff" stroke="#000"><rect y="29" x="18" height="10" width="6" rx="0" ry="0"/><rect y="29" x="34" height="10" width="6" rx="0" ry="0"/></g></svg>
