<svg xmlns="http://www.w3.org/2000/svg" viewBox="0 0 100 100">
    <path fill="#fff" d="M99.9,43.4c-2.8-3.1-6-5.8-9.5-7.9c-4.9-2.9-10.3-4.4-15.9-4.4c-5.9,0-11.6,1.7-16.8,4.8c-3.3,2-6.3,4.5-8.9,7.4l-2.1-17.2c-0.1-1.1-0.5-2.1-1.2-2.9c-0.7-0.8-1.7-1.3-2.8-1.3H2.8C1.3,22,0,23.2,0,24.8v11.3c0,1.5,1.3,2.8,2.8,2.8h30.9l2.5,20.3c-0.5,0.7-1,1.5-1.4,2.3c-3.1,6.1-4.7,12.9-4.7,19.9c0,8.5,3.4,16.6,9.5,22.5c6.1,5.9,14.2,9.2,22.7,9.2c10.3,0,19.9-5,26.5-13.3c2.9-3.6,5-7.8,6.3-12.3c1.3-4.5,2-9.2,2-14c0-5.1-1-10-2.8-14.6C99.9,43.6,99.9,43.5,99.9,43.4z"/>
</svg>