<svg xmlns="http://www.w3.org/2000/svg" viewBox="0 0 100 100">
  <path fill="#fff" d="M68.2,1.5c-2.6,3.4-3.8,8.4-3.8,13.1c0,10.2,5.1,15.3,8.5,18.7c-5.1,1.7-11.1,2.6-17.9,2.6c-14.4,0-28.8-5.1-39.3-15.3C6.3,10.2,17.9,1.5,34.1,1.5c4.2,0,8.5,1.7,11.9,3.4C52.5,2.3,60.1,0.6,68.2,1.5z M88.8,39.3c-5.9,0-11.1,1.7-15.3,4.2c-4.2,3.4-6.8,7.7-8.5,12.8c-2.6,8.5-2.6,17.9,0,26.4c1.7,5.1,4.2,9.4,8.5,12.8c4.2,3.4,9.4,5.1,15.3,5.1c10.2,0,19.6-5.9,25.6-15.3c3.4-5.1,5.1-11.1,5.1-17.9c0-5.9-1.7-11.9-5.1-17.1C108.4,45.2,99,39.3,88.8,39.3z"/>
</svg>